# xmcd CD database file
#
# Track frame offsets:
#	150
#	12883
#	25784
#	39262
#	51154
#	63865
#	78434
#	91941
#	106635
#	119481
#	133979
#	148556
#	163222
#	177246
#	191060
#	203941
#	219282
#	231277
#	250137
#
# Disc length: 3500 seconds
#
# Revision: 1
# Processed by: cddbd v1.5.1PL0 Copyright (c) Steve Scherf et al.
# Submitted via: CDex 1.51
#
DISCID=030daa13
DTITLE=Mohd. Saddiq - Aaja Phabi Jhoot Lai
DYEAR=1980
DGENRE=Punjabi Folk
TTITLE0=Solvi Ch Deor Pad-da 
TTITLE1=Vekhi Bullan Naal Patase Kiven 
TTITLE2=Ja Tur Ja Pekian Nu 
TTITLE3=Mea Vi Kaddan Dand Bethkan
TTITLE4=Tind Wich Kana Pai Rakhna
TTITLE5=Danga Naal Natara Karna
TTITLE6=Aaja Beh Ke Tape Sun Ja
TTITLE7=Jinna Phabian De Deor Kavare
TTITLE8=Jadon Tu Mar Gaye Ni 
TTITLE9=Ik Teri Aad Bhan-ni 
TTITLE10=Longan Nu Muskan De 
TTITLE11=Dubdi Bedi Deor Di 
TTITLE12=Aaja Phabi Jhoot Lai
TTITLE13=Bhij Gai-an Phabiye Poonian 
TTITLE14=Deor Mere Naal Buri Hoi 
TTITLE15=Tera Kee Dukhda Pharjaiye
TTITLE16=Deor Ghar Vaoti
TTITLE17=Lal Pari (Sharab) 
TTITLE18=Waado Ghut Peke 
EXTD=YEAR: 1980
EXTT0=
EXTT1=
EXTT2=
EXTT3=
EXTT4=
EXTT5=
EXTT6=
EXTT7=
EXTT8=
EXTT9=
EXTT10=
EXTT11=
EXTT12=
EXTT13=
EXTT14=
EXTT15=
EXTT16=
EXTT17=
EXTT18=
PLAYORDER=
